<?xml version="1.0" encoding="utf-8"?>
<!-- Generator: Adobe Illustrator 25.0.1, SVG Export Plug-In . SVG Version: 6.00 Build 0)  -->
<svg version="1.1" id="Layer_1" xmlns="http://www.w3.org/2000/svg" xmlns:xlink="http://www.w3.org/1999/xlink" x="0px" y="0px"
	 viewBox="0 0 288 288" style="enable-background:new 0 0 288 288;" xml:space="preserve">
<style type="text/css">
	.st0{opacity:0.94;fill:#030202;stroke:#C12526;stroke-miterlimit:10;}
	.st1{fill:#070404;stroke:#C22D26;stroke-miterlimit:10;}
</style>
<path class="st0" d="M67.4,151.9c27.2-24.4,54.5-48.7,81.7-73.1c27,24,54,48,81.1,72.1c0.1,34.9,0.2,69.8,0.3,104.7
	c0.1,0.3,0.4,1.3-0.1,2.3c-0.4,0.8-1.1,1.2-1.4,1.4c-0.2,0.1-0.4,0.2-1.7,0.5c-0.7,0.2-1.3,0.3-1.7,0.4c-16.8,0-33.7-0.1-50.5-0.1
	c0-15.5,0-31,0-46.5c-0.2-1.2-0.7-1.9-1-2.2c-0.4-0.4-0.8-0.6-1.5-1c-0.8-0.4-1.5-0.7-2-0.8c-14.5,0.1-29,0.1-43.5,0.2
	c-1,0.6-1.7,1-1.7,1c0,0-2,2-2,2c0,0-0.3,47.5-0.3,47.5c-17.2,0-34.5,0-51.7,0c-1-0.4-1.7-0.8-2.2-1.2c-1.1-0.7-1.3-1.2-1.3-1.3
	c-0.3-0.7-0.2-1.3-0.2-1.7C67.6,221.3,67.5,186.6,67.4,151.9z"/>
<path class="st1" d="M39.1,136c0,4.5,0,9.1,0,13.6c1.9,2,3.8,3.9,5.6,5.9c34.7-30.6,69.5-61.2,104.2-91.8
	c34.7,30.6,69.3,61.2,104,91.8c2-1.9,3.9-3.8,5.9-5.6c0.2-4.2,0.5-8.5,0.7-12.7C222.8,104.8,186,72.4,149.2,40
	C112.5,72,75.8,104,39.1,136z"/>
<path class="st1" d="M68.1,54.9c-0.1,14-0.1,27.9-0.2,41.9c9.2-8.2,18.3-16.4,27.5-24.7c0.4-5.7,0.7-11.4,1.1-17
	C87,55.1,77.6,55,68.1,54.9z"/>
</svg>
